<?xml version="1.0" encoding="UTF-8"?>
<svg id="Capa_2" data-name="Capa 2" xmlns="http://www.w3.org/2000/svg" viewBox="0 0 300.55 246.99">
  <defs>
    <style>
      .cls-1 {
        fill: #0075c9;
      }

      .cls-2 {
        fill: #00c08b;
      }
    </style>
  </defs>
  <g id="Capa_1-2" data-name="Capa 1">
    <g>
      <path class="cls-2" d="m219.9,40.32l-53.34,34.12-14.09-45.57-69.26,16.01-6.27,42.19,16.03-12.29,4.14,12.29H26.65l86.23,47.09,71.95-.03,19.27-52.31,69.38-8.46-53.59-33.04Zm-132.84,29.57l2.79-18.85,30.64-7.08-33.42,25.93Zm-31,24.68h43.54l9.85,29.18-53.4-29.18Zm62.31,32.16l-19.13-56.8,46.88-36.27,28.61,93.07h-56.35Zm62.83-4.4l-12.42-40.37,35.71-22.87-23.3,63.24Zm35.66-75.08l34.47,21.27-44.29,5.39,9.83-26.66Z"/>
      <path class="cls-1" d="m150.38,0s-.07,0-.11,0c-.06,0-.12,0-.18,0C67.63.12.25,38.79,0,88.02c.25,49.24,67.64,87.91,150.12,88.02.05,0,.1,0,.16,0,.03,0,.06,0,.09,0,57.56-.06,107.75-18.92,132.94-47.03h.21v-.24c10.79-12.13,16.96-25.96,17.03-40.75C300.3,38.77,232.87.1,150.38,0Zm60.31,10.29h-21.44c-4.5-2.54-9.24-4.64-14.18-6.28,12.48,1.23,24.42,3.36,35.62,6.28Zm-59.03-7.46c11.23.2,21.89,2.84,31.54,7.46h-31.54V2.84Zm-26.25,1.18c-4.94,1.64-9.68,3.74-14.17,6.28h-21.4c11.19-2.92,23.11-5.05,35.57-6.28Zm23.46-1.19v7.47h-31.55c9.66-4.62,20.33-7.27,31.55-7.47ZM45.7,27.97c10.08-5.87,21.65-10.9,34.34-14.89h26.66c-12.65,8.27-23.04,20.03-29.99,34.02l-55.71-.06c6.66-6.99,14.97-13.42,24.69-19.07Zm34.9,135.15c-12.91-4.01-24.67-9.1-34.9-15.05-9.71-5.65-18.02-12.08-24.68-19.06h55.72c6.94,13.96,17.32,25.7,29.96,33.96h-26.1v.15Zm9.28,2.63h21.4c4.49,2.53,9.23,4.63,14.16,6.27-12.46-1.23-24.38-3.36-35.56-6.27Zm59,7.47c-11.23-.2-21.89-2.85-31.55-7.47h31.55v7.47Zm0-36.3v26.04h-36.85c-13.55-7.8-24.75-19.62-32.17-33.96h17.73l-5.07-2.78h-14.04c-1.48-3.13-2.73-6.4-3.85-9.73l-3.6-1.97c1.19,3.97,2.69,7.99,4.38,11.7H18.64v.16c-9.81-11.19-15.43-23.74-15.79-36.95h22.18v-.03l-5.03-2.76H2.85c.36-13.15,5.92-25.65,15.64-36.81l56.9.05c-4.78,10.51-7.64,22.16-8.12,34.47h2.8c1.24-30.84,17.87-57.4,41.93-71.27h36.87v13.74l2.79-.62v-13.12h36.89c11.02,6.36,20.47,15.39,27.62,26.27l2.37-1.47c-6.52-9.95-14.92-18.41-24.68-24.8h26.64c12.69,3.99,24.26,9.02,34.34,14.89,9.74,5.67,18.07,12.12,24.75,19.13h-43.4s4.57,2.79,4.57,2.79h41.35c9.69,11.14,15.23,23.62,15.59,36.75h-64.37c-.03-1.85-.11-3.68-.24-5.5l-2.77.31c.12,1.72.19,3.45.22,5.19h-25.25l-1.03,2.79h26.27c-.2,13.23-3.24,25.7-8.49,36.79h-31.31l-1.03,2.79h30.97c-7.44,14.34-18.64,26.16-32.2,33.96h-36.8v-26.04h-2.79Zm2.79,28.83h31.44c-9.63,4.6-20.26,7.24-31.44,7.46v-7.46Zm23.49,6.27c4.91-1.63,9.61-3.74,14.08-6.27h21.43c-11.17,2.91-23.07,5.04-35.51,6.27Zm79.69-23.95c-10.1,5.88-21.68,10.91-34.38,14.9h-26.64c12.62-8.26,22.99-20,29.94-33.96h55.76c-6.66,6.99-14.97,13.41-24.68,19.06Zm27.21-21.85h-56.94c5.08-11.16,8-23.63,8.21-36.79h64.38c-.36,13.15-5.93,25.64-15.65,36.79Zm-82.37-76.3l4.37-2.76v-.03h-42.99l.89,2.79h37.73Z"/>
      <g>
        <path class="cls-1" d="m39.33,228.59c-.84-.13-1.48.61-1.48.61-3.81,3.16-13.47,2.17-13.47,2.17-10.15,0-8.68-4.14-8.68-4.14.15-2.46,1.54-6.25,1.54-6.25,0,0,1.84-4.24,3.31-6.01,0,0,2.21-4.64,10.88-4.44h6.82s4.05-.03,5.25-2.17c1.21-2.14,1.98-4.56,1.98-4.56h-19.81c-11.8,0-16.09,7.66-16.09,7.66-2.5,2.96-4.85,9.51-4.85,9.51,0,0-2.68,6.75-1.65,10.89,0,0-.44,6.86,18.75,6.92,0,0,7.8-.41,10.77-.84,0,0,3.43-.72,5.17-2.86,0,0,1.36-1.24,2.22-5.68,0,0-.03-.71-.67-.81Z"/>
        <path class="cls-1" d="m209.85,228.59c.51.03,1.49,1.08,1.49,1.08,1.74,1.43,2.71,1.25,2.71,1.25,7.24.96,15.25.17,15.25.17,4.65-.52,4.91-2.95,4.91-2.95.52-2.6-3.1-3.11-3.1-3.11-1.81-.52-12.4-2.95-12.4-2.95-2.84-1.04-5.43-1.56-5.17-5.37.21-3.12,1.63-5.24,1.63-5.24,0,0,4.29-7.66,16.09-7.66h19.81s-.77,2.43-1.98,4.56c-1.21,2.14-5.25,2.17-5.25,2.17h-11.69s-4.78-.32-5.3,2.1c0,0-1.03,1.99,2.84,3.03,0,0,4.13,1.13,12.01,2.77,7.88,1.65,6.07,7.18,5.94,7.79-.13.61-1.94,6.06-4.65,8.06,0,0-4,3.81-9.56,4.01-5.55.2-20.94.29-25.19-.46-2.46-.43-1.68-3.03-1.55-3.29l2.2-5.45s.33-.57.97-.52Z"/>
        <path class="cls-1" d="m117.75,205.75s-3.29,2.44-4.55,3.64l.81-2.15s1.61-3.46-.26-3.46h-13.41v.39c2.05,0,.81,2.75.81,2.75l-13.77,36.53s-1.58,3.53.18,3.54h13.41v-.41c-1.98.01-.81-2.71-.81-2.71l2.07-5.47h19.25c5.42,0,10.55-4.81,10.55-4.81,12.31-13.94,9.23-22.68,9.23-22.68,0,0-.43-7.56-14.21-7.26,0,0-6.52-.25-9.31,2.11Zm10.62,10.36c-.73,5.79-5.71,12.18-5.71,12.18,0,0-2.49,2.85-6.15,2.85h-11.52l7.05-18.66c1-.91,3.28-1.97,8.57-1.97,9.23,0,7.77,5.6,7.77,5.6Z"/>
        <path class="cls-1" d="m51.01,211.76c-2.43,2.94-4.71,9.47-4.71,9.47,0,0-3.1,7.24-2.1,11.37,0,0-.43,6.83,18.19,6.9,21.19.08,23.9-7.98,23.9-7.98,2.42-2.95,4.67-10.29,4.67-10.29,0,0,3.14-6.43,2.14-10.55,0,0,.43-6.83-18.19-6.9-21.19-.08-23.9,7.98-23.9,7.98Zm30.1,2.16c-.14,2.46-2,7.32-2,7.32,0,0-2.53,6.07-3.96,7.83,0,0-1.85,4.42-10.56,4.42-9.85,0-8.42-4.12-8.42-4.12.14-2.46,2.25-8.13,2.25-8.13,0,0,2.28-5.25,3.71-7.02,0,0,1.86-4.42,10.56-4.42,9.85,0,8.42,4.12,8.42,4.12Z"/>
        <path class="cls-1" d="m183.66,208.28l.39-1.01s1.61-3.46-.26-3.46h-13.41v.39c2.05,0,.8,2.75.8,2.75l-10.67,27.83s-1.58,3.53.18,3.55h13.4v-.42c-1.97.01-.8-2.71-.8-2.71l8.49-22.05c4.23-2.9,9.02-2.65,9.02-2.65,7.15,0,4.85,3.9,4.85,3.9l-7.49,20.39s-1.57,3.53.18,3.55h13.41v-.42c-1.98.01-.81-2.71-.81-2.71l8.64-23.32s3.62-8.26-11.2-8.26c0,0-8.78-.29-14.74,4.67Z"/>
        <path class="cls-1" d="m284.1,210.11s2.77-.24,1.91,2.01l-.79,2.09s-.25,1.35-2.76,1.35h-16.1s-6.68-.15-11.14,5.64c-4.46,5.79-4.17,9.92-4.17,9.92,0,0,.28,7.37,9.34,7.27h9.13s1.65.05,3.09-1.23l6.61-5.26.07-.64h-10.64c-3.81,0-4.09-2.16-4.09-2.16,0,0-1.01-1.28,1.22-4.76,2.23-3.49,5.82-3.64,5.82-3.64h11.21l-5.14,14.12s-1.54,3.53.18,3.54h13.15v-.41c-1.94,0-.79-2.72-.79-2.72l8.73-23.71s3.63-7.67-9.16-7.75h-23.75l-1.8,4.76s-.43,1.57,2.62,1.57h17.25Z"/>
        <g>
          <path class="cls-1" d="m153.78,237.9v.42h-13.41c-1.76-.01-.18-3.55-.18-3.55l10.67-27.83s1.24-2.75-.81-2.75v-.39h13.41c1.87,0,.26,3.46.26,3.46l-10.74,27.92s-1.17,2.73.8,2.71Z"/>
          <path class="cls-1" d="m165.93,199.88h-10.68s-3.04.2-2.32-1.69l1.95-5.18h11.48s1.93.01,1.62,1.41l-2.06,5.46Z"/>
        </g>
      </g>
    </g>
  </g>
</svg>